<?xml version="1.0" encoding="iso-8859-1"?>
<!-- Generator: Adobe Illustrator 19.0.0, SVG Export Plug-In . SVG Version: 6.00 Build 0)  -->
<svg version="1.1" id="Capa_1" xmlns="http://www.w3.org/2000/svg" xmlns:xlink="http://www.w3.org/1999/xlink" x="0px" y="0px"
	 viewBox="0 0 512 512" style="enable-background:new 0 0 512 512;" xml:space="preserve">
<g>
	<path style="fill:#25B5AB;" d="M511.999,256c0,19.487-2.173,38.463-6.301,56.706C481.53,419.547,390.551,501.048,278.988,510.985
		c-7.576,0.669-15.245,1.014-22.988,1.014c-121.898,0-223.89-85.201-249.699-199.293c-4.127-18.244-6.301-37.219-6.301-56.706
		C0.001,114.615,114.615,0,256,0c7.743,0,15.412,0.345,22.988,1.014C409.6,12.643,511.999,122.357,511.999,256z"/>
	<path style="fill:#25B5AB;" d="M278.988,1.014v509.972c-7.576,0.669-15.245,1.014-22.988,1.014
		c-121.898,0-223.89-85.201-249.699-199.293C2.174,294.462,0.001,275.487,0.001,256C0.001,114.615,114.615,0,256,0
		C263.742,0,271.412,0.345,278.988,1.014z"/>
</g>
<path style="fill:#BCECF7;" d="M278.988,1.014C271.412,0.345,263.743,0,256,0C114.615,0,0.001,114.615,0.001,256
	c0,19.487,2.173,38.463,6.301,56.706h272.686h226.711c4.127-18.244,6.301-37.219,6.301-56.706
	C511.999,122.357,409.6,12.643,278.988,1.014z"/>
<path style="fill:#D38A6D;" d="M443.126,430.686C396.398,480.726,329.849,512,255.996,512c-51.367,0-99.213-15.13-139.295-41.19
	c-17.544-11.4-33.604-24.879-47.825-40.114c22.894-25.192,50.813-45.735,82.171-60.061c31.963-14.608,67.5-22.747,104.949-22.747
	c37.439,0,72.976,8.14,104.939,22.747C392.292,384.962,420.212,405.504,443.126,430.686z"/>
<circle style="fill:#CC8167;" cx="455.02" cy="189.868" r="48.494"/>
<circle style="fill:#A86958;" cx="446.525" cy="197.945" r="31.927"/>
<circle style="fill:#CC8167;" cx="56.967" cy="189.868" r="48.494"/>
<circle style="fill:#A86958;" cx="65.452" cy="197.945" r="31.927"/>
<path style="fill:#AF725C;" d="M360.935,370.636c-30.48,14.534-66.435,22.068-104.939,22.068c-16.624,0-31.66-1.411-45.819-4.18
	c-25.328-4.953-51.304,5.622-66.142,26.718c-11.222,15.966-21.002,34.293-28.975,54.481c-16.906-11.159-32.413-24.273-46.184-39.027
	c44.68-49.152,108.471-80.624,179.649-82.693c0.387-0.01,0.784-0.021,1.181-0.031c2.09-0.052,4.19-0.084,6.29-0.084
	C293.434,347.889,328.971,356.028,360.935,370.636z"/>
<path style="fill:#D38A6D;" d="M455.18,199.533c0,110.008-89.179,171.528-199.187,171.528S56.805,309.541,56.805,199.533
	S145.985,0.346,255.993,0.346S455.18,89.526,455.18,199.533z"/>
<g>
	<path style="fill:#AF725C;" d="M256,371.056c-110.011,0-199.194-61.523-199.194-171.523c0-109.397,88.185-198.196,197.342-199.182
		c-78.192,1.383-141.267,90.025-141.267,199.182C112.882,309.533,176.955,371.056,256,371.056z"/>
	<path style="fill:#AF725C;" d="M274.633,195.112h-4.811v-11.237c0-7.638-6.192-13.829-13.829-13.829
		c-7.637,0-13.829,6.192-13.829,13.829v11.237h-4.811c-6.641,0-12.026,5.384-12.026,12.026c0,6.641,5.384,12.026,12.026,12.026
		h37.28c6.641,0,12.026-5.384,12.026-12.026C286.658,200.497,281.274,195.112,274.633,195.112z"/>
</g>
<g>
	<ellipse style="fill:#FC9DA4;" cx="381.585" cy="242.311" rx="27.561" ry="16.76"/>
	<path style="fill:#FC9DA4;" d="M157.963,242.315c0,9.26-12.338,16.764-27.551,16.764c-3.8,0-7.42-0.469-10.703-1.323
		c-9.909-2.526-16.86-8.49-16.86-15.441c0-5.64,4.582-10.643,11.617-13.674c4.497-1.948,10.005-3.091,15.946-3.091
		C145.625,225.55,157.963,233.055,157.963,242.315z"/>
</g>
<path style="fill:#F48F9C;" d="M119.709,257.755c-9.909-2.526-16.86-8.49-16.86-15.441c0-5.64,4.582-10.643,11.617-13.674
	C115.62,238.863,117.377,248.567,119.709,257.755z"/>
<g>
	<path style="fill:#845347;" d="M291.498,282.383c0-19.61-15.896-35.506-35.506-35.506s-35.506,15.896-35.506,35.506
		s15.896,16.569,35.506,16.569S291.498,301.992,291.498,282.383z"/>
	<path style="fill:#845347;" d="M170.156,202.311c-22.469,0-40.749-18.28-40.749-40.749c0-5.193,4.21-9.404,9.404-9.404
		c5.194,0,9.404,4.211,9.404,9.404c0,12.099,9.843,21.941,21.941,21.941c12.099,0,21.942-9.843,21.942-21.941
		c0-5.193,4.21-9.404,9.404-9.404s9.404,4.211,9.404,9.404C210.905,184.031,192.625,202.311,170.156,202.311z"/>
	<path style="fill:#845347;" d="M341.83,202.311c-22.469,0-40.75-18.28-40.75-40.749c0-5.193,4.21-9.404,9.404-9.404
		s9.404,4.211,9.404,9.404c0,12.099,9.843,21.941,21.942,21.941c12.098,0,21.941-9.843,21.941-21.941
		c0-5.193,4.21-9.404,9.404-9.404s9.404,4.211,9.404,9.404C382.579,184.031,364.299,202.311,341.83,202.311z"/>
</g>
<g>
	<path style="fill:#53506D;" d="M425.463,129.849h-20.361l21.877-39.541c0.86-1.464,1.297-2.857,1.297-4.142
		c0-2.234-1.625-3.734-4.043-3.734H395.03c-2.463,0-4.118,2.181-4.118,5.425c0,3.194,1.694,5.425,4.118,5.425h17.67l-21.947,39.61
		c-0.767,1.279-1.226,2.773-1.226,3.996c0,2.351,1.549,3.812,4.042,3.812h31.894c2.626,0,4.195-2.759,4.195-5.425
		S428.089,129.849,425.463,129.849z"/>
	<path style="fill:#53506D;" d="M464.245,77.75h31.77c2.867,0,4.522,3.309,4.522,6.288c0,2.978-1.655,6.288-4.522,6.288h-45.78
		c-2.978,0-4.303-1.655-4.303-3.972c0-1.435,0.552-3.309,1.545-4.964l32.763-59.128h-27.909c-2.868,0-4.413-2.978-4.413-6.288
		c0-3.089,1.324-6.288,4.413-6.288h41.919c2.868,0,4.303,1.654,4.303,3.861c0,1.544-0.552,3.309-1.655,5.185L464.245,77.75z"/>
</g>
<g>
</g>
<g>
</g>
<g>
</g>
<g>
</g>
<g>
</g>
<g>
</g>
<g>
</g>
<g>
</g>
<g>
</g>
<g>
</g>
<g>
</g>
<g>
</g>
<g>
</g>
<g>
</g>
<g>
</g>
</svg>
